<?xml version="1.0" standalone="no"?><!DOCTYPE svg PUBLIC "-//W3C//DTD SVG 1.1//EN" "http://www.w3.org/Graphics/SVG/1.1/DTD/svg11.dtd"><svg t="1654069641659" class="icon" viewBox="0 0 1024 1024" version="1.1" xmlns="http://www.w3.org/2000/svg" p-id="4363" xmlns:xlink="http://www.w3.org/1999/xlink" width="200" height="200"><defs><style type="text/css"></style></defs><path d="M848.64 929.57h-667.2c-34.33 0-61.39-30.58-55.83-64.45 30.77-187.31 193.41-330.21 389.43-330.21s358.66 142.9 389.43 330.21c5.56 33.87-21.5 64.45-55.83 64.45z" fill="#F7B52C" p-id="4364"></path><path d="M515.04 287.1m-214.72 0a214.72 214.72 0 1 0 429.44 0 214.72 214.72 0 1 0-429.44 0Z" fill="#F7B52C" p-id="4365"></path><path d="M377.49 317.07c-10.53 0-19.36-8.23-19.96-18.87-2.23-38.99 10.86-76.52 36.85-105.66s61.78-46.43 100.77-48.66c11.05-0.63 20.49 7.8 21.13 18.84 0.63 11.04-7.8 20.49-18.84 21.13-28.32 1.62-54.31 14.17-73.18 35.34-18.88 21.17-28.38 48.42-26.76 76.73 0.63 11.04-7.8 20.49-18.84 21.13-0.4 0.01-0.79 0.02-1.17 0.02z" fill="#FFFFFF" p-id="4366"></path></svg>